<svg width="24" height="24" viewBox="0 0 24 24" fill="none" xmlns="http://www.w3.org/2000/svg">
<g clip-path="url(#clip0_964_9289)">
<path d="M12.0018 5.84738C8.59683 5.84738 5.84883 8.59538 5.84883 12.0004C5.84883 15.4054 8.59683 18.1534 12.0018 18.1534C15.4068 18.1534 18.1548 15.4054 18.1548 12.0004C18.1548 8.59538 15.4068 5.84738 12.0018 5.84738ZM12.0018 15.9994C9.79983 15.9994 8.00283 14.2024 8.00283 12.0004C8.00283 9.79838 9.79983 8.00138 12.0018 8.00138C14.2038 8.00138 16.0008 9.79838 16.0008 12.0004C16.0008 14.2024 14.2038 15.9994 12.0018 15.9994ZM18.4068 4.16138C17.6118 4.16138 16.9698 4.80338 16.9698 5.59838C16.9698 6.39338 17.6118 7.03538 18.4068 7.03538C19.2018 7.03538 19.8438 6.39638 19.8438 5.59838C19.8441 5.4096 19.8071 5.22263 19.7349 5.04818C19.6628 4.87373 19.557 4.71522 19.4235 4.58173C19.29 4.44825 19.1315 4.34241 18.957 4.27028C18.7826 4.19815 18.5956 4.16114 18.4068 4.16138ZM23.9958 12.0004C23.9958 10.3444 24.0108 8.70337 23.9178 7.05038C23.8248 5.13038 23.3868 3.42638 21.9828 2.02238C20.5758 0.615376 18.8748 0.180376 16.9548 0.0873762C15.2988 -0.00562382 13.6578 0.00937622 12.0048 0.00937622C10.3488 0.00937622 8.70783 -0.00562382 7.05483 0.0873762C5.13483 0.180376 3.43083 0.618376 2.02683 2.02238C0.619832 3.42938 0.184832 5.13038 0.0918317 7.05038C-0.00116826 8.70638 0.0138318 10.3474 0.0138318 12.0004C0.0138318 13.6534 -0.00116826 15.2974 0.0918317 16.9504C0.184832 18.8704 0.622832 20.5744 2.02683 21.9784C3.43383 23.3854 5.13483 23.8204 7.05483 23.9134C8.71083 24.0064 10.3518 23.9914 12.0048 23.9914C13.6608 23.9914 15.3018 24.0064 16.9548 23.9134C18.8748 23.8204 20.5788 23.3824 21.9828 21.9784C23.3898 20.5714 23.8248 18.8704 23.9178 16.9504C24.0138 15.2974 23.9958 13.6564 23.9958 12.0004ZM21.3558 19.0744C21.1368 19.6204 20.8728 20.0284 20.4498 20.4484C20.0268 20.8714 19.6218 21.1354 19.0758 21.3544C17.4978 21.9814 13.7508 21.8404 12.0018 21.8404C10.2528 21.8404 6.50283 21.9814 4.92483 21.3574C4.37883 21.1384 3.97083 20.8744 3.55083 20.4514C3.12783 20.0284 2.86383 19.6234 2.64483 19.0774C2.02083 17.4964 2.16183 13.7494 2.16183 12.0004C2.16183 10.2514 2.02083 6.50138 2.64483 4.92338C2.86383 4.37738 3.12783 3.96938 3.55083 3.54938C3.97383 3.12938 4.37883 2.86238 4.92483 2.64338C6.50283 2.01938 10.2528 2.16038 12.0018 2.16038C13.7508 2.16038 17.5008 2.01938 19.0788 2.64338C19.6248 2.86238 20.0328 3.12638 20.4528 3.54938C20.8758 3.97238 21.1398 4.37738 21.3588 4.92338C21.9828 6.50138 21.8418 10.2514 21.8418 12.0004C21.8418 13.7494 21.9828 17.4964 21.3558 19.0744Z" fill="#E61F5A"/>
</g>
<defs>
<clipPath id="clip0_964_9289">
<rect width="24" height="24" fill="white"/>
</clipPath>
</defs>
</svg>
