<svg width="21" height="23" viewBox="0 0 21 23" fill="none" xmlns="http://www.w3.org/2000/svg">
<path d="M6.73407 2.12891H2.78383C2.59386 2.12891 2.43994 2.27975 2.43994 2.46582C2.43994 2.65189 2.59386 2.80273 2.78383 2.80273H6.73407C6.92404 2.80273 7.07796 2.65189 7.07796 2.46582C7.07796 2.27975 6.92399 2.12891 6.73407 2.12891Z" fill="white"/>
<path d="M6.73407 3.68359H2.78383C2.59386 3.68359 2.43994 3.83444 2.43994 4.02051C2.43994 4.20657 2.59386 4.35742 2.78383 4.35742H6.73407C6.92404 4.35742 7.07796 4.20657 7.07796 4.02051C7.07796 3.83444 6.92399 3.68359 6.73407 3.68359Z" fill="white"/>
<path d="M20.5923 20.3267L13.3044 13.7105C13.6368 13.3496 13.9505 12.9851 14.2425 12.619C14.8059 13.0057 15.5887 12.9548 16.0935 12.4636C16.6614 11.9111 16.6646 11.0135 16.1005 10.457L13.0657 7.46325C12.5029 6.90815 11.5841 6.9051 11.0174 7.45643C10.5731 7.8888 10.4754 8.53572 10.7254 9.06252C9.33538 10.1044 7.91797 11.4712 6.80245 12.8795C6.27685 12.6348 5.61338 12.7148 5.16069 13.1553C4.59282 13.7079 4.58951 14.6055 5.15372 15.162L8.18854 18.1557C8.75201 18.7116 9.66872 18.7152 10.2367 18.1625C10.7412 17.6716 10.7986 16.9043 10.408 16.3501C10.7845 16.0659 11.1596 15.7603 11.5311 15.4363L18.2341 22.6212C18.6896 23.1094 19.468 23.1283 19.9474 22.6618L20.6219 22.0054C21.1005 21.5397 21.0889 20.7776 20.5923 20.3267ZM11.5021 7.93453C11.8004 7.64433 12.2829 7.6473 12.5777 7.93812L15.6125 10.9319C15.9087 11.224 15.9072 11.6953 15.6089 11.9855C15.3113 12.2751 14.8288 12.2734 14.5333 11.9819L11.4985 8.98826C11.203 8.69676 11.2046 8.22405 11.5021 7.93453ZM11.1454 9.59614L13.7392 12.1548C12.6806 13.4917 11.312 14.824 9.93764 15.8539L7.34382 13.2953C8.37525 11.9925 9.73814 10.6507 11.1454 9.59614ZM9.75208 17.6845C9.45413 17.9744 8.97278 17.9731 8.67654 17.6809L5.64172 14.6872C5.34552 14.3951 5.34712 13.9237 5.64538 13.6335C5.94333 13.3436 6.42468 13.3449 6.72092 13.6371L9.75579 16.6308C10.0513 16.9222 10.0497 17.3949 9.75208 17.6845ZM20.1372 21.5274L19.4627 22.1837C19.2554 22.3855 18.9285 22.3668 18.7418 22.1666L12.0374 14.9802C12.1724 14.855 12.3069 14.7282 12.4405 14.5983C12.5749 14.4675 12.706 14.3357 12.8355 14.2035L20.1248 20.821C20.3325 21.0096 20.3397 21.3303 20.1372 21.5274Z" fill="white"/>
<path d="M16.4948 22.3104C16.4308 22.3208 16.3651 22.3261 16.2994 22.3261H1.90205C1.24729 22.3261 0.714628 21.8042 0.714628 21.1627V1.83717C0.714628 1.19573 1.24729 0.673828 1.90205 0.673828H13.1087C13.155 0.673828 13.2006 0.678365 13.2453 0.685732V2.99216C13.2453 4.00519 14.0866 4.82933 15.1205 4.82933H17.4747C17.4822 4.87321 17.4868 4.91782 17.4868 4.96319V16.7201C17.4868 16.9062 17.6408 17.0571 17.8307 17.0571C18.0207 17.0571 18.1746 16.9062 18.1746 16.7201V4.96319C18.1746 4.56959 18.0182 4.19957 17.7342 3.92128L14.1722 0.431609C13.8882 0.153273 13.5105 0 13.1087 0H1.90205C0.868094 0 0.0268555 0.824182 0.0268555 1.83717V21.1627C0.0268555 22.1757 0.868094 22.9999 1.90205 22.9999H16.2994C16.4025 22.9999 16.506 22.9916 16.607 22.9752C16.7943 22.9449 16.9212 22.7714 16.8902 22.5878C16.8592 22.4043 16.6821 22.2798 16.4948 22.3104ZM17.0005 4.1555H15.1205C14.4658 4.1555 13.9331 3.6336 13.9331 2.99216V1.15031L17.0005 4.1555Z" fill="white"/>
</svg>
