<svg width="32" height="27" viewBox="0 0 32 27" fill="none" xmlns="http://www.w3.org/2000/svg">
<g clip-path="url(#clip0_964_9396)">
<path d="M16.8434 23.176H14.2119C14.0946 23.176 13.9822 23.1302 13.8993 23.0487C13.8164 22.9672 13.7698 22.8567 13.7698 22.7415V1.75451C13.7698 1.29631 13.955 0.856873 14.2846 0.532875C14.6143 0.208876 15.0614 0.0268555 15.5277 0.0268555C15.9939 0.0268555 16.441 0.208876 16.7707 0.532875C17.1003 0.856873 17.2855 1.29631 17.2855 1.75451V22.7419C17.2854 22.8571 17.2388 22.9675 17.1559 23.0489C17.073 23.1303 16.9606 23.176 16.8434 23.176ZM14.654 22.3069H16.4013V1.75451C16.4013 1.52679 16.3092 1.3084 16.1454 1.14738C15.9816 0.98636 15.7594 0.895898 15.5277 0.895898C15.296 0.895898 15.0737 0.98636 14.9099 1.14738C14.7461 1.3084 14.654 1.52679 14.654 1.75451V22.3069Z" fill="white"/>
<path d="M4.87264 5.85192H3.35484C2.99473 5.84557 2.65155 5.70052 2.39916 5.44798C2.14678 5.19545 2.00537 4.85562 2.00537 4.50164C2.00537 4.14766 2.14678 3.80784 2.39916 3.5553C2.65155 3.30277 2.99473 3.15772 3.35484 3.15137H4.65733C4.77458 3.15137 4.88704 3.19715 4.96995 3.27864C5.05287 3.36012 5.09945 3.47065 5.09945 3.58589C5.09945 3.70113 5.05287 3.81165 4.96995 3.89314C4.88704 3.97463 4.77458 4.02041 4.65733 4.02041H3.35484C3.22752 4.02417 3.1067 4.07652 3.018 4.16636C2.92929 4.2562 2.87968 4.37646 2.87968 4.50164C2.87968 4.62683 2.92929 4.74709 3.018 4.83693C3.1067 4.92677 3.22752 4.97912 3.35484 4.98288H4.87264C4.9899 4.98288 5.10235 5.02866 5.18527 5.11014C5.26818 5.19163 5.31476 5.30215 5.31476 5.4174C5.31476 5.53264 5.26818 5.64316 5.18527 5.72465C5.10235 5.80614 4.9899 5.85192 4.87264 5.85192Z" fill="white"/>
<path d="M14.2118 5.85192H7.54686C7.4296 5.85192 7.31714 5.80614 7.23423 5.72465C7.15132 5.64316 7.10474 5.53264 7.10474 5.4174C7.10474 5.30215 7.15132 5.19163 7.23423 5.11014C7.31714 5.02866 7.4296 4.98288 7.54686 4.98288H13.7697V4.02041H7.76173C7.64447 4.02041 7.53202 3.97463 7.4491 3.89314C7.36619 3.81165 7.31961 3.70113 7.31961 3.58589C7.31961 3.47065 7.36619 3.36012 7.4491 3.27864C7.53202 3.19715 7.64447 3.15137 7.76173 3.15137H14.2118C14.3291 3.15137 14.4415 3.19715 14.5245 3.27864C14.6074 3.36012 14.654 3.47065 14.654 3.58589V5.4174C14.654 5.53264 14.6074 5.64316 14.5245 5.72465C14.4415 5.80614 14.3291 5.85192 14.2118 5.85192Z" fill="white"/>
<path d="M23.4121 5.85192H16.8435C16.7262 5.85192 16.6138 5.80614 16.5309 5.72465C16.4479 5.64316 16.4014 5.53264 16.4014 5.4174V3.58589C16.4014 3.47065 16.4479 3.36012 16.5309 3.27864C16.6138 3.19715 16.7262 3.15137 16.8435 3.15137H23.1972C23.3145 3.15137 23.4269 3.19715 23.5098 3.27864C23.5928 3.36012 23.6393 3.47065 23.6393 3.58589C23.6393 3.70113 23.5928 3.81165 23.5098 3.89314C23.4269 3.97463 23.3145 4.02041 23.1972 4.02041H17.2856V4.98288H23.4121C23.5293 4.98288 23.6418 5.02866 23.7247 5.11014C23.8076 5.19163 23.8542 5.30215 23.8542 5.4174C23.8542 5.53264 23.8076 5.64316 23.7247 5.72465C23.6418 5.80614 23.5293 5.85192 23.4121 5.85192Z" fill="white"/>
<path d="M27.6962 5.85192H26.1828C26.0656 5.85192 25.9531 5.80614 25.8702 5.72465C25.7873 5.64316 25.7407 5.53264 25.7407 5.4174C25.7407 5.30215 25.7873 5.19163 25.8702 5.11014C25.9531 5.02866 26.0656 4.98288 26.1828 4.98288H27.6962C27.8235 4.97912 27.9444 4.92677 28.0331 4.83693C28.1218 4.74709 28.1714 4.62683 28.1714 4.50164C28.1714 4.37646 28.1218 4.2562 28.0331 4.16636C27.9444 4.07652 27.8235 4.02417 27.6962 4.02041H26.4008C26.2836 4.02041 26.1711 3.97463 26.0882 3.89314C26.0053 3.81165 25.9587 3.70113 25.9587 3.58589C25.9587 3.47065 26.0053 3.36012 26.0882 3.27864C26.1711 3.19715 26.2836 3.15137 26.4008 3.15137H27.6962C28.0563 3.15772 28.3995 3.30277 28.6519 3.5553C28.9043 3.80784 29.0457 4.14766 29.0457 4.50164C29.0457 4.85562 28.9043 5.19545 28.6519 5.44798C28.3995 5.70052 28.0563 5.84557 27.6962 5.85192Z" fill="white"/>
<path d="M21.1271 25.9725H9.92822C9.86111 25.9724 9.79489 25.9574 9.73457 25.9285C9.67426 25.8995 9.62144 25.8575 9.58011 25.8055C9.53878 25.7536 9.51003 25.6931 9.49604 25.6285C9.48205 25.564 9.48319 25.4972 9.49936 25.4332C9.68166 24.5739 10.1511 23.7992 10.833 23.2323C11.515 22.6654 12.3702 22.3388 13.2627 22.3047H17.7927C18.6852 22.3388 19.5404 22.6654 20.2223 23.2323C20.9043 23.7992 21.3737 24.5739 21.556 25.4332C21.5722 25.4972 21.5733 25.564 21.5593 25.6285C21.5453 25.6931 21.5166 25.7536 21.4753 25.8055C21.4339 25.8575 21.3811 25.8995 21.3208 25.9285C21.2605 25.9574 21.1943 25.9724 21.1271 25.9725ZM10.5397 25.1034H20.5157C20.3052 24.5544 19.9346 24.0786 19.4502 23.7357C18.9658 23.3929 18.3892 23.1981 17.7927 23.1759H13.2627C12.6662 23.1981 12.0896 23.3929 11.6052 23.7357C11.1208 24.0786 10.7501 24.5544 10.5397 25.1034Z" fill="white"/>
<path d="M22.3244 25.9726H8.73094C8.61368 25.9726 8.50123 25.9268 8.41831 25.8453C8.3354 25.7638 8.28882 25.6533 8.28882 25.538C8.28882 25.4228 8.3354 25.3123 8.41831 25.2308C8.50123 25.1493 8.61368 25.1035 8.73094 25.1035H22.3244C22.4416 25.1035 22.5541 25.1493 22.637 25.2308C22.7199 25.3123 22.7665 25.4228 22.7665 25.538C22.7665 25.6533 22.7199 25.7638 22.637 25.8453C22.5541 25.9268 22.4416 25.9726 22.3244 25.9726Z" fill="white"/>
<path d="M30.5599 16.747H19.1351C19.0611 16.7471 18.9882 16.7289 18.9232 16.6941C18.8582 16.6593 18.8032 16.609 18.7631 16.5478C18.723 16.4867 18.6992 16.4166 18.6938 16.3441C18.6884 16.2715 18.7017 16.1988 18.7323 16.1326L23.5868 5.62849C23.6107 5.57638 23.6448 5.52941 23.6872 5.49029C23.7296 5.45116 23.7795 5.42065 23.8339 5.40049C23.8883 5.38032 23.9463 5.37091 24.0044 5.37279C24.0625 5.37467 24.1197 5.38781 24.1727 5.41145C24.2256 5.43508 24.2733 5.46876 24.313 5.51054C24.3527 5.55232 24.3836 5.60139 24.404 5.65493C24.4243 5.70848 24.4338 5.76544 24.4317 5.82257C24.4296 5.87969 24.4161 5.93586 24.3919 5.98784L19.8212 15.878H29.872L25.3053 5.98784C25.2813 5.93585 25.268 5.87974 25.2661 5.82269C25.2642 5.76565 25.2737 5.70879 25.2942 5.65537C25.3146 5.60195 25.3456 5.55301 25.3853 5.51134C25.4249 5.46967 25.4726 5.4361 25.5255 5.41253C25.5784 5.38896 25.6355 5.37587 25.6935 5.37399C25.7516 5.37211 25.8094 5.38148 25.8638 5.40158C25.9181 5.42167 25.9679 5.45209 26.0103 5.4911C26.0527 5.53011 26.0869 5.57694 26.1109 5.62892L30.9605 16.133C30.991 16.1991 31.0041 16.2715 30.9988 16.3438C30.9935 16.4162 30.9698 16.486 30.93 16.547C30.8902 16.6081 30.8355 16.6583 30.7708 16.6933C30.7062 16.7282 30.6337 16.7467 30.5599 16.747Z" fill="white"/>
<path d="M24.8928 22.2894H24.8008C21.2608 22.2894 18.6912 19.7761 18.6912 16.3129C18.6912 16.1977 18.7377 16.0872 18.8207 16.0057C18.9036 15.9242 19.016 15.8784 19.1333 15.8784H30.5599C30.6771 15.8784 30.7896 15.9242 30.8725 16.0057C30.9554 16.0872 31.002 16.1977 31.002 16.3129C31.002 19.7783 28.4324 22.2894 24.8928 22.2894ZM19.5909 16.7475C19.7881 19.5206 21.8744 21.4203 24.8008 21.4203H24.8928C27.8187 21.4203 29.9056 19.5206 30.1023 16.7475H19.5909Z" fill="white"/>
<path d="M24.8468 6.47143C24.4168 6.47152 23.9966 6.3463 23.6391 6.11161C23.2816 5.87693 23.0029 5.54332 22.8384 5.15298C22.6738 4.76264 22.6307 4.3331 22.7146 3.9187C22.7984 3.50429 23.0055 3.12364 23.3094 2.82487C23.6134 2.5261 24.0008 2.32265 24.4224 2.24024C24.8441 2.15783 25.2811 2.20017 25.6783 2.3619C26.0754 2.52363 26.4149 2.79749 26.6537 3.14884C26.8925 3.50019 27.0199 3.91324 27.0198 4.33576C27.0191 4.90196 26.7899 5.44478 26.3825 5.84515C25.9752 6.24551 25.4229 6.47074 24.8468 6.47143ZM24.8468 3.0687C24.5918 3.06861 24.3425 3.14285 24.1304 3.28202C23.9183 3.4212 23.753 3.61906 23.6554 3.85058C23.5577 4.08209 23.5321 4.33687 23.5818 4.58269C23.6315 4.8285 23.7543 5.05431 23.9345 5.23156C24.1148 5.4088 24.3445 5.52952 24.5946 5.57845C24.8447 5.62737 25.104 5.60231 25.3396 5.50642C25.5752 5.41053 25.7766 5.24813 25.9182 5.03975C26.0599 4.83137 26.1355 4.58638 26.1355 4.33576C26.1352 3.9999 25.9993 3.67788 25.7577 3.44035C25.5161 3.20281 25.1885 3.06916 24.8468 3.0687Z" fill="white"/>
<path d="M11.9201 16.7475H0.49571C0.421735 16.7475 0.348949 16.7292 0.284016 16.6944C0.219084 16.6595 0.164082 16.6093 0.124049 16.5481C0.0840157 16.487 0.0602306 16.4169 0.0548724 16.3444C0.0495142 16.2719 0.0627541 16.1992 0.0933795 16.1331L4.94875 5.62896C4.99724 5.52397 5.08617 5.44222 5.19599 5.40168C5.30581 5.36114 5.42752 5.36513 5.53434 5.41278C5.64117 5.46044 5.72435 5.54784 5.7656 5.65577C5.80685 5.7637 5.80278 5.88332 5.7543 5.98831L1.18365 15.8784H11.2344L6.66772 5.98831C6.64233 5.93616 6.62778 5.87955 6.62493 5.82181C6.62207 5.76407 6.63097 5.70634 6.6511 5.65202C6.67124 5.5977 6.70219 5.54787 6.74217 5.50546C6.78214 5.46305 6.83032 5.4289 6.88389 5.40502C6.93746 5.38114 6.99534 5.368 7.05414 5.36638C7.11294 5.36476 7.17148 5.37469 7.22633 5.39559C7.28117 5.41648 7.33123 5.44793 7.37355 5.48807C7.41588 5.52822 7.44963 5.57626 7.47282 5.62939L12.3229 16.1335C12.3534 16.1997 12.3666 16.2724 12.3612 16.3448C12.3557 16.4173 12.3319 16.4873 12.2918 16.5484C12.2518 16.6095 12.1967 16.6597 12.1318 16.6945C12.0669 16.7293 11.9941 16.7475 11.9201 16.7475Z" fill="white"/>
<path d="M6.25466 22.2894H6.1627C2.62308 22.2894 0.0534668 19.7783 0.0534668 16.3129C0.0534668 16.1977 0.100047 16.0872 0.182961 16.0057C0.265875 15.9242 0.37833 15.8784 0.495588 15.8784H11.9222C12.0395 15.8784 12.1519 15.9242 12.2348 16.0057C12.3178 16.0872 12.3643 16.1977 12.3643 16.3129C12.3643 19.7783 9.79472 22.2894 6.25466 22.2894ZM0.953183 16.7475C1.14993 19.5206 3.23674 21.4203 6.1627 21.4203H6.25466C9.18106 21.4203 11.2674 19.5206 11.4646 16.7475H0.953183Z" fill="white"/>
<path d="M6.20862 6.47143C5.77873 6.47143 5.3585 6.34614 5.00106 6.1114C4.64363 5.87667 4.36505 5.54303 4.20056 5.15268C4.03607 4.76233 3.99305 4.33281 4.07695 3.91843C4.16085 3.50406 4.3679 3.12344 4.67191 2.82472C4.97592 2.52599 5.36323 2.32258 5.78487 2.24021C6.20651 2.15784 6.64354 2.2002 7.04068 2.36195C7.43782 2.52369 7.77724 2.79755 8.01601 3.14889C8.25478 3.50022 8.38218 3.91326 8.38209 4.33576C8.38139 4.90204 8.15216 5.44492 7.7447 5.8453C7.33723 6.24568 6.78481 6.47086 6.20862 6.47143ZM6.20862 3.0687C5.95364 3.0687 5.70438 3.14301 5.49237 3.28224C5.28036 3.42146 5.11511 3.61935 5.01754 3.85088C4.91996 4.0824 4.89443 4.33717 4.94417 4.58295C4.99392 4.82874 5.1167 5.05451 5.297 5.23171C5.47731 5.40891 5.70702 5.52959 5.95711 5.57848C6.20719 5.62737 6.46641 5.60228 6.70199 5.50638C6.93756 5.41047 7.13891 5.24807 7.28058 5.0397C7.42224 4.83134 7.49785 4.58636 7.49785 4.33576C7.4975 3.99982 7.36156 3.67774 7.11986 3.44019C6.87816 3.20265 6.55044 3.06904 6.20862 3.0687Z" fill="white"/>
</g>
<defs>
<clipPath id="clip0_964_9396">
<rect width="31.0556" height="26" fill="white"/>
</clipPath>
</defs>
</svg>
