<svg width="26" height="26" viewBox="0 0 26 26" fill="none" xmlns="http://www.w3.org/2000/svg">
<path d="M25.5263 21.3344C25.3539 21.0671 25.1481 20.8308 24.9147 20.6319L22.5419 18.5624C22.5234 18.5346 22.502 18.5082 22.4775 18.4837C22.4362 18.4425 22.3895 18.4103 22.3398 18.3863L20.9049 17.1348L14.2632 11.3411C14.5351 11.0569 14.6848 10.6852 14.6848 10.29C14.6848 9.88279 14.5263 9.50016 14.2382 9.21212C14.1126 9.08664 13.9698 8.98798 13.8172 8.91572L14.4317 8.30126C14.6034 8.34691 14.7799 8.37027 14.9565 8.37027C15.4766 8.37022 15.9967 8.17228 16.3925 7.77639C16.7763 7.39263 16.9877 6.88253 16.9877 6.34004C16.9877 5.79754 16.7763 5.28745 16.3926 4.90369L12.0839 0.595105C11.7002 0.211352 11.19 0 10.6474 0C10.105 0 9.59496 0.211352 9.21126 0.595105C8.6809 1.12546 8.50632 1.8785 8.68639 2.55602L2.55582 8.68654C2.38641 8.6415 2.21015 8.61773 2.03008 8.61773C1.48733 8.61773 0.977437 8.82893 0.593988 9.21233C-0.197996 10.0043 -0.197996 11.293 0.593988 12.085L4.90263 16.3937C5.29867 16.7897 5.81882 16.9877 6.33897 16.9877C6.85918 16.9877 7.37933 16.7897 7.77537 16.3937C8.30573 15.8633 8.48032 15.1103 8.30025 14.4328L8.91343 13.8196C8.98711 13.9734 9.0871 14.1154 9.21131 14.2396C9.49904 14.5273 9.88157 14.6858 10.2886 14.6858C10.6835 14.6858 11.055 14.5363 11.3396 14.2648L18.4137 22.3925C18.4332 22.423 18.456 22.452 18.4826 22.4786C18.4917 22.4877 18.5013 22.4959 18.5109 22.5042L20.6189 24.9261C20.6713 24.988 20.7273 25.0488 20.7855 25.107C21.3644 25.6857 22.1291 25.9998 22.932 25.9998C23.0735 25.9998 23.2164 25.99 23.3594 25.9702C24.3156 25.8379 25.1419 25.2659 25.6265 24.4007C26.1573 23.4525 26.1178 22.2486 25.5263 21.3344ZM9.92946 1.31325C10.1214 1.12135 10.3764 1.01562 10.6474 1.01562C10.9188 1.01562 11.174 1.12135 11.3658 1.31325L15.6745 5.62189C15.8664 5.81379 15.9721 6.06887 15.9721 6.34009C15.9721 6.61131 15.8664 6.86639 15.6744 7.05829C15.2786 7.45423 14.6344 7.45423 14.2386 7.05829L9.92972 2.74945C9.92961 2.74935 9.92956 2.7493 9.92946 2.7492C9.53352 2.3533 9.53352 1.70914 9.92946 1.31325ZM7.05722 15.6756C6.66123 16.0716 6.01677 16.0716 5.62077 15.6756L1.31214 11.3669C0.916094 10.9709 0.916094 10.3266 1.31214 9.93048C1.50368 9.73888 1.75871 9.63336 2.03008 9.63336C2.30141 9.63336 2.55628 9.73883 2.74777 9.93027L7.05717 14.2397C7.45316 14.6355 7.45316 15.2797 7.05722 15.6756ZM9.19521 12.1016L7.77532 13.5215L3.46623 9.21243L9.21126 3.46729L13.5203 7.77639L12.0978 9.19892C12.0932 9.20329 12.0887 9.20755 12.0838 9.21238L9.21273 12.0835C9.20679 12.0893 9.20105 12.0954 9.19521 12.1016ZM11.0084 13.1609C11.0074 13.1619 11.0064 13.1629 11.0054 13.1639L10.6478 13.5215C10.5519 13.6174 10.4244 13.6702 10.2886 13.6702C10.1528 13.6702 10.0253 13.6174 9.92941 13.5215C9.83338 13.4255 9.78052 13.2978 9.78052 13.162C9.78052 13.029 9.83125 12.904 9.92332 12.8096L12.8077 9.92519C13.0054 9.73294 13.3251 9.73532 13.5204 9.93048C13.6164 10.0265 13.6692 10.1541 13.6692 10.29C13.6692 10.4257 13.6165 10.553 13.5204 10.6489L13.1648 11.0044C13.1624 11.0068 13.16 11.0093 13.1576 11.0117L11.0084 13.1609ZM12.06 13.5456L13.5441 12.0615L19.8279 17.5425L17.5349 19.8356L12.06 13.5456ZM18.2032 20.6035L20.595 18.2117L21.3621 18.8808L18.8716 21.3714L18.2032 20.6035ZM24.7404 23.9046C24.4127 24.4897 23.8586 24.8759 23.2202 24.9643C22.5833 25.0524 21.9576 24.8426 21.5035 24.3888C21.4644 24.3498 21.427 24.3091 21.3922 24.2679C21.3906 24.2659 21.389 24.264 21.3873 24.2621L19.5399 22.1394L22.1292 19.5499L24.2494 21.3992C24.2509 21.4006 24.2526 21.402 24.2542 21.4034C24.4129 21.5384 24.5538 21.7004 24.6732 21.8855C25.0572 22.4789 25.0842 23.2904 24.7404 23.9046Z" fill="white"/>
</svg>
