<svg width="24" height="18" viewBox="0 0 24 18" fill="none" xmlns="http://www.w3.org/2000/svg">
<g clip-path="url(#clip0_964_9293)">
<path d="M23.4699 2.93173C23.3335 2.39876 23.0663 1.91283 22.6951 1.52255C22.324 1.13228 21.8619 0.851352 21.355 0.707895C19.4884 0.176697 11.9879 0.176697 11.9879 0.176697C11.9879 0.176697 4.48729 0.176697 2.62071 0.707895C2.11385 0.851352 1.65172 1.13228 1.28057 1.52255C0.90941 1.91283 0.642248 2.39876 0.50582 2.93173C0.157288 4.93341 -0.0118455 6.96507 0.000644257 8.99999C-0.0118455 11.0349 0.157288 13.0666 0.50582 15.0683C0.642248 15.6012 0.90941 16.0872 1.28057 16.4774C1.65172 16.8677 2.11385 17.1486 2.62071 17.2921C4.48729 17.8233 11.9879 17.8233 11.9879 17.8233C11.9879 17.8233 19.4884 17.8233 21.355 17.2921C21.8619 17.1486 22.324 16.8677 22.6951 16.4774C23.0663 16.0872 23.3335 15.6012 23.4699 15.0683C23.8184 13.0666 23.9876 11.0349 23.9751 8.99999C23.9876 6.96507 23.8184 4.93341 23.4699 2.93173ZM9.59041 12.7814V5.21858L15.8152 8.99999L9.59041 12.7814Z" fill="#E42F08"/>
</g>
<defs>
<clipPath id="clip0_964_9293">
<rect width="24" height="17.6842" fill="white" transform="translate(0 0.157898)"/>
</clipPath>
</defs>
</svg>
